# xmcd
#
# Track frame offsets:
#  150
#  26107
#  49757
#  70122
#  88090
#
# Disc length: 1430 seconds
#
# Revision: 0
# Processed by: cddbd v1.5.1PL2 Copyright (c) Steve Scherf et al.
# Submitted via: Collectorz.com_Music_Collector 6.9
#
DISCID=3d059405
DTITLE=Acuff's Rose - Long Past Dawn
DYEAR=1992
DGENRE=Australia - Country, Alternative 
TTITLE0=But She Knows
TTITLE1=Endless Rain
TTITLE2=Dead Man's Calling
TTITLE3=Lonesome, Lonely Oh (acoustic)
TTITLE4=Travelling Blue
EXTD=
EXTT0=
EXTT1=
EXTT2=
EXTT3=
EXTT4=
PLAYORDER=
